# xmcd
#
# Track frame offsets: 
#        150
#        14409
#        26861
#        37978
#        50566
#        62553
#        72870
#        83987
#        94340
#        101140
#        110934
#        122078
#        133535
#        150094
#        162524
#
# Disc length: 2324 seconds
#
# Revision: 1
# Processed by: cddbd v1.5.1PL0 Copyright (c) Steve Scherf et al.
# Submitted via: ExactAudioCopy v0.95a5
#
DISCID=cc09120f
DTITLE=Various Artist - You Can't Stop The Christmas Bop Vol.2
DYEAR=1997
DGENRE=Christmas/Holiday
TTITLE0=The Rimshots - A Lonley Christmas Night
TTITLE1=The Rimshots - Santa Stole My Wiskey
TTITLE2=Rusti Steel and The Tin Tax - Santa Clause Is Back In Town
TTITLE3=Tennesee Bil and The Tennesee Boys - Poor Ol´ Rudolph
TTITLE4=Ike and The Capers - Marshmallow World
TTITLE5=Ike and The Capers - He'll Hold Your Hand
TTITLE6=Rusti Steel and The Tin Tax - Reindeer Boogie
TTITLE7=Rusti Steel and The Tin Tax - Sleigh Bell Rock
TTITLE8=Barnstompers - We Wanna See Santa Do The Mambo
TTITLE9=Barnstompers - Christmas Boogie
TTITLE10=Blue Tops - A Very Special Christmas
TTITLE11=Blue Tops - Santa Clause Is Back In Town
TTITLE12=Dalhart Imperials - Old Man Spivey's Egg Nogg
TTITLE13=Jesse Al'Tuscan and The Lumberjacks - The Man In Red
TTITLE14=Rusti Steel and The Tin Tax - Christams Blues
EXTD=YEAR: 1997 ID3G: 78
EXTT0=
EXTT1=
EXTT2=
EXTT3=
EXTT4=
EXTT5=
EXTT6=
EXTT7=
EXTT8=
EXTT9=
EXTT10=
EXTT11=
EXTT12=
EXTT13=
EXTT14=
PLAYORDER=
